Coordinates
version=1
nRows=17
nColumns=38
inDegrees=no

Units are S.I. units (second, meters, Newtons, ...)
If the header above contains a line with 'inDegrees', this indicates whether rotational values are in degrees (yes) or radians (no).

endheader
time	pelvis_tilt	pelvis_list	pelvis_rotation	pelvis_tx	pelvis_ty	pelvis_tz	hip_flexion_r	hip_adduction_r	hip_rotation_r	knee_angle_r	ankle_angle_r	subtalar_angle_r	mtp_angle_r	hip_flexion_l	hip_adduction_l	hip_rotation_l	knee_angle_l	ankle_angle_l	subtalar_angle_l	mtp_angle_l	lumbar_extension	lumbar_bending	lumbar_rotation	arm_flex_r	arm_add_r	arm_rot_r	elbow_flex_r	pro_sup_r	wrist_flex_r	wrist_dev_r	arm_flex_l	arm_add_l	arm_rot_l	elbow_flex_l	pro_sup_l	wrist_flex_l	wrist_dev_l
2.66	2.66123	1.48243	1.99628	0.65278	1.85295	0.954209	-0.0269045	-0.0648594	-0.0759853	0	0.00572489	0	0	-0.0220523	0.0324719	-0.14721	0.0149447	0.0473341	0	0	0.0635187	0.00803591	-0.0712783	0.000733638	-0.114456	-0.000314057	0.355704	1.5708	0	0	0.130406	-0.0351054	-0.277453	0	1.5708	0	0
2.67	2.67641	1.4807	1.98194	0.6539	1.85299	0.954057	-0.0241743	-0.0656621	-0.077054	0	0.00558826	0	0	-0.0183522	0.0329249	-0.146847	0.0174803	0.0492504	0	0	0.0657562	0.0090151	-0.0729281	0.000326897	-0.115781	0.00189105	0.354025	1.5708	0	0	0.123014	-0.0361421	-0.26092	0.00928871	1.5708	0	0
2.68	2.8377	1.47504	1.82668	0.655746	1.85368	0.952287	-0.0116678	-0.0536548	-0.0792172	0	0.0058407	0	0	0.00677252	0.0207847	-0.134282	0.033453	0.0536558	0	0	0.0767622	0.0236197	-0.0788199	-0.00209891	-0.121384	0.00447155	0.356365	1.5708	0	0	0.116887	-0.0339594	-0.245929	0.0241448	1.5708	0	0
2.69	2.66547	1.48271	1.99368	0.656198	1.85278	0.954242	-0.0270362	-0.0685075	-0.0781074	0	0.0049799	0	0	-0.0216382	0.0359112	-0.145409	0.0157585	0.0485238	0	0	0.0631033	0.00946432	-0.0737388	0.000420228	-0.116986	-0.00096362	0.348214	1.5708	0	0	0.0954013	-0.0422223	-0.167937	0.08146	1.5708	0	0
2.7	2.67971	1.48127	1.98219	0.657552	1.85257	0.954099	-0.025261	-0.0692666	-0.0819032	0	0.00522684	0	0	-0.0178745	0.0362664	-0.144066	0.0196534	0.0515952	0	0	0.0660541	0.00978197	-0.0762797	-0.000869497	-0.117206	-0.00489958	0.345716	1.5708	0	0	0.109217	-0.0401008	-0.248737	0.0421058	1.5708	0	0
2.71	2.84391	1.47581	1.82628	0.659633	1.85296	0.952307	-0.0140321	-0.0570612	-0.0864742	0	0.00546496	0	0	0.00718859	0.0240309	-0.129709	0.036174	0.0564066	0	0	0.0780979	0.0241888	-0.0832329	-0.0049396	-0.122415	-0.00481001	0.348675	1.5708	0	0	0.100426	-0.0387412	-0.226034	0.0619979	1.5708	0	0
2.72	2.68411	1.48219	1.98218	0.660278	1.85196	0.954085	-0.0274088	-0.0714458	-0.0863796	0	0.00485824	0	0	-0.0176488	0.0383025	-0.140313	0.0219427	0.0534091	0	0	0.0671943	0.0103479	-0.0783525	-0.00474774	-0.118452	-0.0068311	0.342962	1.5708	0	0	0.0996936	-0.0431581	-0.23725	0.0629246	1.5708	0	0
2.73	2.66902	1.48472	1.99761	0.661627	1.85168	0.954252	-0.030627	-0.0733755	-0.0860257	0	0.00491708	0	0	-0.0215714	0.0402787	-0.13926	0.0205701	0.0527335	0	0	0.0645137	0.0102369	-0.0768441	-0.00579413	-0.118854	-0.0108119	0.340645	1.5708	0	0	0.099129	-0.0440927	-0.244816	0.0655622	1.5708	0	0
2.74	2.66749	1.48546	2.00114	0.663062	1.85133	0.954267	-0.0318224	-0.0748188	-0.0872933	0	0.00512814	0	0	-0.021864	0.041521	-0.137449	0.0219929	0.0538845	0	0	0.0647803	0.0102935	-0.076601	-0.00676788	-0.117803	-0.0249049	0.335829	1.5708	0	0	0.0862015	-0.0473245	-0.205722	0.0986116	1.5708	0	0
2.75	2.66812	1.48627	2.00244	0.664548	1.85095	0.954265	-0.0327751	-0.0761321	-0.0889638	0	0.00551821	0	0	-0.021941	0.0425856	-0.1358	0.0239121	0.0555316	0	0	0.0651283	0.0106063	-0.0761322	-0.009062	-0.118037	-0.0316887	0.334142	1.5708	0	0	0.0814518	-0.0490623	-0.200273	0.109995	1.5708	0	0
2.76	2.66734	1.48739	2.00482	0.666078	1.85055	0.954265	-0.0339422	-0.0774714	-0.0903757	0	0.00595832	0	0	-0.0223865	0.0437367	-0.134096	0.0258698	0.0572103	0	0	0.065133	0.0109445	-0.0750674	-0.0115764	-0.118511	-0.0377634	0.333098	1.5708	0	0	0.0769443	-0.050816	-0.194648	0.120931	1.5708	0	0
2.77	2.66525	1.4888	2.0085	0.667664	1.85013	0.954272	-0.0354504	-0.0788097	-0.0918431	0	0.00644055	0	0	-0.0230529	0.0449354	-0.132114	0.0280853	0.0589326	0	0	0.0648675	0.011333	-0.0738797	-0.0144568	-0.119213	-0.0397667	0.332484	1.5708	0	0	0.0727395	-0.052645	-0.190472	0.130983	1.5708	0	0
2.78	2.66435	1.49028	2.01106	0.669278	1.84971	0.954282	-0.0371919	-0.0800145	-0.0931146	0	0.00671997	0	0	-0.0236895	0.0459811	-0.130057	0.0303936	0.0606615	0	0	0.0644675	0.0119006	-0.0726052	-0.0173163	-0.119785	-0.0426334	0.332031	1.5708	0	0	0.0675506	-0.0548586	-0.183543	0.143737	1.5708	0	0
2.79	2.66276	1.49186	2.01424	0.670946	1.84926	0.954308	-0.0390897	-0.0812979	-0.0945018	0	0.00702782	0	0	-0.0246078	0.0470585	-0.128106	0.0325556	0.0624213	0	0	0.0639873	0.0124659	-0.0708265	-0.020072	-0.12031	-0.0464274	0.330967	1.5708	0	0	0.0628088	-0.0568668	-0.177859	0.15567	1.5708	0	0
2.8	2.66309	1.49341	2.01453	0.672555	1.84872	0.954321	-0.040925	-0.0824596	-0.0950128	0	0.00719828	0	0	-0.0260551	0.0480073	-0.126864	0.0338405	0.0640288	0	0	0.0638399	0.013216	-0.0680985	-0.0230051	-0.120884	-0.0489096	0.329817	1.5708	0	0	0.0579032	-0.0585595	-0.173347	0.167381	1.5708	0	0
2.81	2.66241	1.49487	2.01535	0.674183	1.84808	0.954315	-0.0427732	-0.0837627	-0.095095	0	0.00735957	0	0	-0.0282107	0.0492143	-0.125521	0.0339102	0.0650801	0	0	0.0639026	0.0139582	-0.0648929	-0.0261173	-0.121604	-0.0507326	0.32895	1.5708	0	0	0.0522998	-0.060406	-0.167238	0.180363	1.5708	0	0
2.82	2.66111	1.49676	2.01892	0.67609	1.84769	0.954354	-0.0450453	-0.0850735	-0.0977292	0	0.00752257	0	0	-0.0298272	0.0503412	-0.121519	0.0351658	0.0664026	0	0	0.0627249	0.0146672	-0.063499	-0.0283086	-0.12234	-0.05352	0.327788	1.5708	0	0	0.0479423	-0.0626761	-0.162033	0.191764	1.5708	0	0
